<?xml version="1.0" encoding="utf-8"?>
<!-- Generator: Adobe Illustrator 13.0.0, SVG Export Plug-In . SVG Version: 6.00 Build 14948)  -->
<!DOCTYPE svg PUBLIC "-//W3C//DTD SVG 1.1//EN" "http://www.w3.org/Graphics/SVG/1.1/DTD/svg11.dtd">
<svg version="1.1" id="Layer_1" xmlns="http://www.w3.org/2000/svg" xmlns:xlink="http://www.w3.org/1999/xlink" x="0px" y="0px"
	 width="190px" height="190px" viewBox="0 0 190 190" style="enable-background:new 0 0 190 190;" xml:space="preserve">
<path d="M175.259,159.91l-50.086-47.708c7.97-10.682,12.688-23.931,12.69-38.283c-0.004-35.394-28.688-64.077-64.081-64.082
	C38.391,9.842,9.708,38.525,9.704,73.919c0.004,35.392,28.687,64.079,64.079,64.083c12.346-0.001,23.871-3.502,33.652-9.551
	l51.27,48.837c2.322,2.212,5.301,3.311,8.274,3.311c3.17,0,6.334-1.248,8.691-3.724C180.24,172.076,180.058,164.48,175.259,159.91z
	 M36.25,111.454c-9.613-9.623-15.544-22.861-15.546-37.535c0.002-14.676,5.932-27.912,15.546-37.535
	c9.623-9.613,22.859-15.542,37.533-15.544c14.674,0.002,27.91,5.932,37.533,15.544c9.613,9.623,15.545,22.859,15.547,37.535
	c-0.002,14.674-5.934,27.912-15.547,37.535c-9.623,9.614-22.858,15.546-37.533,15.548C59.108,127,45.873,121.068,36.25,111.454z"/>
</svg>
